<svg xmlns="http://www.w3.org/2000/svg" viewBox="0 0 100 100">
  <!-- A rainbow perler bead: six-color ring with the fuse-bead hole punched out -->
  <defs>
    <mask id="hole">
      <rect width="100" height="100" fill="white"/>
      <circle cx="50" cy="50" r="18" fill="black"/>
    </mask>
  </defs>
  <g mask="url(#hole)">
    <path d="M50,50 L50,2 A48,48 0 0 1 91.57,26 Z" fill="#d46a6a"/>
    <path d="M50,50 L91.57,26 A48,48 0 0 1 91.57,74 Z" fill="#d49a50"/>
    <path d="M50,50 L91.57,74 A48,48 0 0 1 50,98 Z" fill="#f5c800"/>
    <path d="M50,50 L50,98 A48,48 0 0 1 8.43,74 Z" fill="#00d980"/>
    <path d="M50,50 L8.43,74 A48,48 0 0 1 8.43,26 Z" fill="#2898ff"/>
    <path d="M50,50 L8.43,26 A48,48 0 0 1 50,2 Z" fill="#a855f7"/>
  </g>
</svg>
